<svg width="181" height="45" viewBox="0 0 181 45" fill="none" xmlns="http://www.w3.org/2000/svg">
<path d="M17.67 36.69L14.49 32.88C13.61 33.1 12.71 33.21 11.79 33.21C9.83 33.21 8.03 32.75 6.39 31.83C4.75 30.91 3.45 29.64 2.49 28.02C1.53 26.38 1.05 24.53 1.05 22.47C1.05 20.43 1.53 18.6 2.49 16.98C3.45 15.34 4.75 14.06 6.39 13.14C8.03 12.22 9.83 11.76 11.79 11.76C13.77 11.76 15.57 12.22 17.19 13.14C18.83 14.06 20.12 15.34 21.06 16.98C22.02 18.6 22.5 20.43 22.5 22.47C22.5 24.33 22.1 26.03 21.3 27.57C20.52 29.09 19.45 30.33 18.09 31.29L22.89 36.69H17.67ZM5.37 22.47C5.37 23.87 5.64 25.1 6.18 26.16C6.72 27.22 7.47 28.04 8.43 28.62C9.41 29.18 10.53 29.46 11.79 29.46C13.05 29.46 14.16 29.18 15.12 28.62C16.08 28.04 16.83 27.22 17.37 26.16C17.91 25.1 18.18 23.87 18.18 22.47C18.18 21.07 17.91 19.85 17.37 18.81C16.83 17.75 16.08 16.94 15.12 16.38C14.16 15.82 13.05 15.54 11.79 15.54C10.53 15.54 9.41 15.82 8.43 16.38C7.47 16.94 6.72 17.75 6.18 18.81C5.64 19.85 5.37 21.07 5.37 22.47ZM41.3733 16.38V33H37.1433V30.9C36.6033 31.62 35.8933 32.19 35.0133 32.61C34.1533 33.01 33.2133 33.21 32.1933 33.21C30.8933 33.21 29.7433 32.94 28.7433 32.4C27.7433 31.84 26.9533 31.03 26.3733 29.97C25.8133 28.89 25.5333 27.61 25.5333 26.13V16.38H29.7333V25.53C29.7333 26.85 30.0633 27.87 30.7233 28.59C31.3833 29.29 32.2833 29.64 33.4233 29.64C34.5833 29.64 35.4933 29.29 36.1533 28.59C36.8133 27.87 37.1433 26.85 37.1433 25.53V16.38H41.3733ZM47.6473 14.4C46.9073 14.4 46.2873 14.17 45.7873 13.71C45.3073 13.23 45.0673 12.64 45.0673 11.94C45.0673 11.24 45.3073 10.66 45.7873 10.2C46.2873 9.72 46.9073 9.48 47.6473 9.48C48.3873 9.48 48.9973 9.72 49.4773 10.2C49.9773 10.66 50.2273 11.24 50.2273 11.94C50.2273 12.64 49.9773 13.23 49.4773 13.71C48.9973 14.17 48.3873 14.4 47.6473 14.4ZM49.7173 16.38V33H45.5173V16.38H49.7173ZM57.7069 29.55H65.1169V33H52.9369V29.61L60.1969 19.83H52.9669V16.38H65.0269V19.77L57.7069 29.55ZM67.3488 22.5C67.3488 20.44 67.8088 18.6 68.7288 16.98C69.6688 15.34 70.9388 14.07 72.5388 13.17C74.1588 12.25 75.9688 11.79 77.9688 11.79C80.3088 11.79 82.3588 12.39 84.1188 13.59C85.8788 14.79 87.1088 16.45 87.8088 18.57H82.9788C82.4988 17.57 81.8188 16.82 80.9388 16.32C80.0788 15.82 79.0788 15.57 77.9388 15.57C76.7188 15.57 75.6288 15.86 74.6688 16.44C73.7288 17 72.9888 17.8 72.4488 18.84C71.9288 19.88 71.6688 21.1 71.6688 22.5C71.6688 23.88 71.9288 25.1 72.4488 26.16C72.9888 27.2 73.7288 28.01 74.6688 28.59C75.6288 29.15 76.7188 29.43 77.9388 29.43C79.0788 29.43 80.0788 29.18 80.9388 28.68C81.8188 28.16 82.4988 27.4 82.9788 26.4H87.8088C87.1088 28.54 85.8788 30.21 84.1188 31.41C82.3788 32.59 80.3288 33.18 77.9688 33.18C75.9688 33.18 74.1588 32.73 72.5388 31.83C70.9388 30.91 69.6688 29.64 68.7288 28.02C67.8088 26.4 67.3488 24.56 67.3488 22.5ZM90.3162 24.63C90.3162 22.95 90.6462 21.46 91.3062 20.16C91.9862 18.86 92.8962 17.86 94.0362 17.16C95.1962 16.46 96.4862 16.11 97.9062 16.11C99.1462 16.11 100.226 16.36 101.146 16.86C102.086 17.36 102.836 17.99 103.396 18.75V16.38H107.626V33H103.396V30.57C102.856 31.35 102.106 32 101.146 32.52C100.206 33.02 99.1162 33.27 97.8762 33.27C96.4762 33.27 95.1962 32.91 94.0362 32.19C92.8962 31.47 91.9862 30.46 91.3062 29.16C90.6462 27.84 90.3162 26.33 90.3162 24.63ZM103.396 24.69C103.396 23.67 103.196 22.8 102.796 22.08C102.396 21.34 101.856 20.78 101.176 20.4C100.496 20 99.7662 19.8 98.9862 19.8C98.2062 19.8 97.4862 19.99 96.8262 20.37C96.1662 20.75 95.6262 21.31 95.2062 22.05C94.8062 22.77 94.6062 23.63 94.6062 24.63C94.6062 25.63 94.8062 26.51 95.2062 27.27C95.6262 28.01 96.1662 28.58 96.8262 28.98C97.5062 29.38 98.2262 29.58 98.9862 29.58C99.7662 29.58 100.496 29.39 101.176 29.01C101.856 28.61 102.396 28.05 102.796 27.33C103.196 26.59 103.396 25.71 103.396 24.69ZM115.928 18.78C116.468 18.02 117.208 17.39 118.148 16.89C119.108 16.37 120.198 16.11 121.418 16.11C122.838 16.11 124.118 16.46 125.258 17.16C126.418 17.86 127.328 18.86 127.988 20.16C128.668 21.44 129.008 22.93 129.008 24.63C129.008 26.33 128.668 27.84 127.988 29.16C127.328 30.46 126.418 31.47 125.258 32.19C124.118 32.91 122.838 33.27 121.418 33.27C120.198 33.27 119.118 33.02 118.178 32.52C117.258 32.02 116.508 31.39 115.928 30.63V40.92H111.728V16.38H115.928V18.78ZM124.718 24.63C124.718 23.63 124.508 22.77 124.088 22.05C123.688 21.31 123.148 20.75 122.468 20.37C121.808 19.99 121.088 19.8 120.308 19.8C119.548 19.8 118.828 20 118.148 20.4C117.488 20.78 116.948 21.34 116.528 22.08C116.128 22.82 115.928 23.69 115.928 24.69C115.928 25.69 116.128 26.56 116.528 27.3C116.948 28.04 117.488 28.61 118.148 29.01C118.828 29.39 119.548 29.58 120.308 29.58C121.088 29.58 121.808 29.38 122.468 28.98C123.148 28.58 123.688 28.01 124.088 27.27C124.508 26.53 124.718 25.65 124.718 24.63Z" fill="black"/>
<rect x="139" y="6" width="41.6679" height="38.5881" rx="15" fill="#D0FF95"/>
<g clip-path="url(#clip0_123_62)">
<path d="M173.674 20.1673C173.315 17.6098 172.133 15.2388 170.306 13.4126C168.48 11.5864 166.109 10.4042 163.552 10.0447C161.978 9.83441 160.378 9.94368 158.847 10.366C157.316 10.7882 155.887 11.5148 154.643 12.5023C153.4 13.4898 152.368 14.7179 151.61 16.1132C150.852 17.5084 150.384 19.0422 150.232 20.6228L146.858 27.3206C146.766 27.5045 146.744 27.7158 146.797 27.9147C146.85 28.1136 146.973 28.2863 147.145 28.4003L149.321 29.8428V36.1356C149.321 36.3594 149.41 36.5739 149.568 36.7321C149.726 36.8903 149.941 36.9792 150.164 36.9792H167.879C168.103 36.9792 168.317 36.8903 168.475 36.7321C168.634 36.5739 168.723 36.3594 168.723 36.1356C168.765 33.5578 169.671 31.0688 171.295 29.0667C172.271 27.82 172.984 26.3891 173.393 24.8598C173.802 23.3305 173.898 21.7344 173.674 20.1673ZM169.963 28.0038C168.276 30.0838 167.256 32.6237 167.035 35.2921H160.793C161.288 34.9002 161.73 34.4466 162.109 33.9424L162.615 33.2676C162.75 33.0886 162.807 32.8636 162.775 32.6421C162.744 32.4207 162.626 32.2208 162.447 32.0866C162.268 31.9524 162.043 31.8947 161.821 31.9264C161.6 31.958 161.4 32.0763 161.266 32.2553L160.759 32.9301C160.213 33.659 159.505 34.2514 158.691 34.6612C157.878 35.0709 156.98 35.2869 156.069 35.2921H151.008V29.3872C151.007 29.2483 150.972 29.1117 150.906 28.9896C150.84 28.8674 150.744 28.7635 150.628 28.6871L148.722 27.4133L151.607 21.635C151.757 21.4842 151.844 21.2823 151.852 21.0699C151.962 19.4913 152.441 17.9606 153.249 16.6006C154.058 15.2406 155.175 14.0891 156.509 13.2387C157.844 12.3882 159.359 11.8624 160.933 11.7036C162.508 11.5447 164.097 11.7571 165.575 12.3239C167.052 12.8906 168.376 13.7957 169.441 14.9667C170.505 16.1377 171.28 17.5419 171.703 19.0666C172.126 20.5913 172.187 22.1941 171.878 23.7462C171.57 25.2982 170.903 26.7565 169.929 28.0038H169.963Z" fill="#305500"/>
<path d="M161.975 13.3598C160.306 13.3598 158.675 13.8546 157.288 14.7815C155.901 15.7084 154.82 17.0258 154.181 18.5672C153.543 20.1086 153.376 21.8047 153.701 23.441C154.027 25.0773 154.83 26.5804 156.01 27.7601C157.189 28.9398 158.693 29.7432 160.329 30.0687C161.965 30.3942 163.661 30.2271 165.203 29.5887C166.744 28.9502 168.061 27.869 168.988 26.4818C169.915 25.0946 170.41 23.4637 170.41 21.7953C170.41 20.6876 170.192 19.5906 169.768 18.5672C169.344 17.5438 168.723 16.6138 167.939 15.8305C167.156 15.0472 166.226 14.4259 165.203 14.0019C164.179 13.578 163.082 13.3598 161.975 13.3598ZM161.975 28.5437C160.64 28.5437 159.335 28.1479 158.225 27.4064C157.116 26.6649 156.251 25.6109 155.74 24.3778C155.229 23.1447 155.095 21.7878 155.356 20.4788C155.616 19.1697 156.259 17.9673 157.203 17.0235C158.146 16.0797 159.349 15.437 160.658 15.1766C161.967 14.9162 163.324 15.0499 164.557 15.5606C165.79 16.0714 166.844 16.9363 167.586 18.0461C168.327 19.1559 168.723 20.4606 168.723 21.7953C168.723 23.5851 168.012 25.3016 166.746 26.5671C165.481 27.8327 163.764 28.5437 161.975 28.5437Z" fill="#305500"/>
<path d="M161.974 19.2647H163.661C163.885 19.2647 164.099 19.1758 164.258 19.0176C164.416 18.8594 164.505 18.6448 164.505 18.4211C164.505 18.1974 164.416 17.9828 164.258 17.8246C164.099 17.6664 163.885 17.5776 163.661 17.5776H162.818C162.818 17.3538 162.729 17.1393 162.57 16.9811C162.412 16.8229 162.198 16.734 161.974 16.734C161.75 16.734 161.536 16.8229 161.378 16.9811C161.219 17.1393 161.13 17.3538 161.13 17.5776V17.7294C160.573 17.9318 160.104 18.3239 159.805 18.8371C159.507 19.3503 159.399 19.9519 159.5 20.5368C159.6 21.1217 159.903 21.6527 160.355 22.037C160.808 22.4212 161.381 22.6342 161.974 22.6388C162.198 22.6388 162.412 22.7277 162.57 22.8859C162.729 23.0441 162.818 23.2587 162.818 23.4824C162.818 23.7061 162.729 23.9207 162.57 24.0789C162.412 24.2371 162.198 24.3259 161.974 24.3259H160.287C160.063 24.3259 159.849 24.4148 159.69 24.573C159.532 24.7312 159.443 24.9458 159.443 25.1695C159.443 25.3932 159.532 25.6078 159.69 25.766C159.849 25.9242 160.063 26.013 160.287 26.013H161.13C161.13 26.2368 161.219 26.4513 161.378 26.6095C161.536 26.7677 161.75 26.8566 161.974 26.8566C162.198 26.8566 162.412 26.7677 162.57 26.6095C162.729 26.4513 162.818 26.2368 162.818 26.013V25.8612C163.375 25.6588 163.844 25.2667 164.143 24.7535C164.441 24.2403 164.549 23.6387 164.448 23.0538C164.348 22.4689 164.045 21.9379 163.593 21.5536C163.14 21.1694 162.567 20.9564 161.974 20.9518C161.75 20.9518 161.536 20.8629 161.378 20.7047C161.219 20.5465 161.13 20.3319 161.13 20.1082C161.13 19.8845 161.219 19.6699 161.378 19.5117C161.536 19.3535 161.75 19.2647 161.974 19.2647Z" fill="#305500"/>
</g>
<defs>
<clipPath id="clip0_123_62">
<rect width="26.9935" height="26.9935" fill="white" transform="translate(146.79 9.98563)"/>
</clipPath>
</defs>
</svg>
