<svg width="42" height="39" viewBox="0 0 42 39" fill="none" xmlns="http://www.w3.org/2000/svg">
<rect width="41.6679" height="38.5881" rx="15" fill="#D0FF95"/>
<g clip-path="url(#clip0_117_7)">
<path d="M34.6742 14.1673C34.3147 11.6098 33.1325 9.23877 31.3063 7.41257C29.4801 5.58636 27.1091 4.40419 24.5516 4.04468C22.9778 3.83441 21.3777 3.94368 19.847 4.36595C18.3164 4.78822 16.8866 5.51483 15.6432 6.50232C14.3997 7.4898 13.3682 8.7179 12.6103 10.1132C11.8524 11.5084 11.3836 13.0422 11.232 14.6228L7.85779 21.3206C7.76569 21.5045 7.74401 21.7158 7.79683 21.9147C7.84965 22.1136 7.97333 22.2863 8.14459 22.4003L10.3209 23.8428V30.1356C10.3209 30.3594 10.4098 30.5739 10.568 30.7321C10.7262 30.8903 10.9408 30.9792 11.1645 30.9792H28.879C29.1027 30.9792 29.3173 30.8903 29.4755 30.7321C29.6337 30.5739 29.7226 30.3594 29.7226 30.1356C29.7652 27.5578 30.6711 25.0688 32.2954 23.0667C33.2709 21.82 33.9844 20.3891 34.3932 18.8598C34.802 17.3305 34.8976 15.7344 34.6742 14.1673ZM30.9626 22.0038C29.2765 24.0838 28.2564 26.6237 28.0355 29.2921H21.7932C22.2877 28.9002 22.7299 28.4466 23.1091 27.9424L23.6153 27.2676C23.7495 27.0886 23.8071 26.8636 23.7755 26.6421C23.7439 26.4207 23.6255 26.2208 23.4466 26.0866C23.2676 25.9524 23.0426 25.8947 22.8211 25.9264C22.5997 25.958 22.3998 26.0763 22.2656 26.2553L21.7595 26.9301C21.2129 27.659 20.5051 28.2514 19.6914 28.6612C18.8778 29.0709 17.9803 29.2869 17.0693 29.2921H12.008V23.3872C12.0073 23.2483 11.9723 23.1117 11.9061 22.9896C11.8399 22.8674 11.7445 22.7635 11.6284 22.6871L9.72203 21.4133L12.607 15.635C12.7568 15.4842 12.8442 15.2823 12.8516 15.0699C12.9618 13.4913 13.4406 11.9606 14.2495 10.6006C15.0584 9.24055 16.1748 8.08911 17.5092 7.23866C18.8437 6.38821 20.3589 5.86245 21.9333 5.70358C23.5077 5.5447 25.0974 5.75715 26.5748 6.32385C28.0522 6.89055 29.3762 7.79574 30.4405 8.96674C31.5048 10.1377 32.2797 11.5419 32.7031 13.0666C33.1265 14.5913 33.1865 16.1941 32.8784 17.7462C32.5703 19.2982 31.9025 20.7565 30.9288 22.0038H30.9626Z" fill="#305500"/>
<path d="M22.9746 7.35983C21.3062 7.35983 19.6753 7.85457 18.288 8.78147C16.9008 9.70837 15.8196 11.0258 15.1812 12.5672C14.5427 14.1086 14.3757 15.8047 14.7012 17.441C15.0266 19.0773 15.83 20.5804 17.0098 21.7601C18.1895 22.9398 19.6925 23.7432 21.3289 24.0687C22.9652 24.3942 24.6613 24.2271 26.2027 23.5887C27.7441 22.9502 29.0615 21.869 29.9884 20.4818C30.9153 19.0946 31.41 17.4637 31.41 15.7953C31.41 14.6876 31.1918 13.5906 30.7679 12.5672C30.344 11.5438 29.7226 10.6138 28.9393 9.83053C28.156 9.04722 27.2261 8.42587 26.2027 8.00195C25.1792 7.57802 24.0823 7.35983 22.9746 7.35983ZM22.9746 22.5437C21.6398 22.5437 20.3351 22.1479 19.2253 21.4064C18.1156 20.6649 17.2506 19.6109 16.7399 18.3778C16.2291 17.1447 16.0954 15.7878 16.3558 14.4788C16.6162 13.1697 17.2589 11.9673 18.2027 11.0235C19.1465 10.0797 20.3489 9.43699 21.658 9.1766C22.9671 8.91621 24.3239 9.04985 25.557 9.56062C26.7902 10.0714 27.8441 10.9363 28.5856 12.0461C29.3271 13.1559 29.7229 14.4606 29.7229 15.7953C29.7229 17.5851 29.0119 19.3016 27.7464 20.5671C26.4808 21.8327 24.7643 22.5437 22.9746 22.5437Z" fill="#305500"/>
<path d="M22.974 13.2647H24.6611C24.8848 13.2647 25.0994 13.1758 25.2576 13.0176C25.4158 12.8594 25.5046 12.6448 25.5046 12.4211C25.5046 12.1974 25.4158 11.9828 25.2576 11.8246C25.0994 11.6664 24.8848 11.5776 24.6611 11.5776H23.8176C23.8176 11.3538 23.7287 11.1393 23.5705 10.9811C23.4123 10.8229 23.1977 10.734 22.974 10.734C22.7503 10.734 22.5357 10.8229 22.3775 10.9811C22.2193 11.1393 22.1305 11.3538 22.1305 11.5776V11.7294C21.5726 11.9318 21.1036 12.3239 20.8054 12.8371C20.5073 13.3503 20.399 13.9519 20.4995 14.5368C20.6 15.1217 20.9029 15.6527 21.3552 16.037C21.8076 16.4212 22.3805 16.6342 22.974 16.6388C23.1977 16.6388 23.4123 16.7277 23.5705 16.8859C23.7287 17.0441 23.8176 17.2587 23.8176 17.4824C23.8176 17.7061 23.7287 17.9207 23.5705 18.0789C23.4123 18.2371 23.1977 18.3259 22.974 18.3259H21.2869C21.0632 18.3259 20.8486 18.4148 20.6904 18.573C20.5322 18.7312 20.4434 18.9458 20.4434 19.1695C20.4434 19.3932 20.5322 19.6078 20.6904 19.766C20.8486 19.9242 21.0632 20.013 21.2869 20.013H22.1305C22.1305 20.2368 22.2193 20.4513 22.3775 20.6095C22.5357 20.7677 22.7503 20.8566 22.974 20.8566C23.1977 20.8566 23.4123 20.7677 23.5705 20.6095C23.7287 20.4513 23.8176 20.2368 23.8176 20.013V19.8612C24.3755 19.6588 24.8445 19.2667 25.1426 18.7535C25.4407 18.2403 25.549 17.6387 25.4485 17.0538C25.348 16.4689 25.0451 15.9379 24.5928 15.5536C24.1405 15.1694 23.5675 14.9564 22.974 14.9518C22.7503 14.9518 22.5357 14.8629 22.3775 14.7047C22.2193 14.5465 22.1305 14.3319 22.1305 14.1082C22.1305 13.8845 22.2193 13.6699 22.3775 13.5117C22.5357 13.3535 22.7503 13.2647 22.974 13.2647Z" fill="#305500"/>
</g>
<defs>
<clipPath id="clip0_117_7">
<rect width="26.9935" height="26.9935" fill="white" transform="translate(7.79004 3.98563)"/>
</clipPath>
</defs>
</svg>
