<svg width="378" height="378" viewBox="0 0 378 378" fill="none" xmlns="http://www.w3.org/2000/svg">
<path d="M251.378 48.2555C234.882 57.6904 223.247 73.5588 209.147 86.2974C191.611 102.079 170.266 113.023 147.216 118.049C128.316 122.139 108.569 122.2 90.3571 128.633C54.8251 141.1 30.4894 178.098 29.8771 215.717C29.2647 253.336 50.6671 289.805 82.1242 310.429C92.8377 317.456 104.566 322.798 116.9 326.267C140.034 332.776 164.566 332.489 188.471 330.002C229.763 325.7 273.052 302.249 299.081 269.189C310.684 254.413 320.49 238.311 328.293 221.221C341.184 193.12 348.506 162.787 349.854 131.899C350.95 105.439 349.854 76.1065 328.86 56.821C307.866 37.5354 275.985 34.1712 251.378 48.2555Z" fill="#E6FFC7"/>
<path opacity="0.7" d="M251.378 48.2555C234.882 57.6904 223.247 73.5588 209.147 86.2974C191.611 102.079 170.266 113.023 147.216 118.049C128.316 122.139 108.569 122.2 90.3571 128.633C54.8251 141.1 30.4894 178.098 29.8771 215.717C29.2647 253.336 50.6671 289.805 82.1242 310.429C92.8377 317.456 104.566 322.798 116.9 326.267C140.034 332.776 164.566 332.489 188.471 330.002C229.763 325.7 273.052 302.249 299.081 269.189C310.684 254.413 320.49 238.311 328.293 221.221C341.184 193.12 348.506 162.787 349.854 131.899C350.95 105.439 349.854 76.1065 328.86 56.821C307.866 37.5354 275.985 34.1712 251.378 48.2555Z" fill="white"/>
<path d="M207.976 351.2C282.851 351.2 343.549 334.852 343.549 314.685C343.549 294.518 282.851 278.17 207.976 278.17C133.101 278.17 72.4023 294.518 72.4023 314.685C72.4023 334.852 133.101 351.2 207.976 351.2Z" fill="#E6FFC7"/>
<path opacity="0.5" d="M207.976 351.2C282.851 351.2 343.549 334.852 343.549 314.685C343.549 294.518 282.851 278.17 207.976 278.17C133.101 278.17 72.4023 294.518 72.4023 314.685C72.4023 334.852 133.101 351.2 207.976 351.2Z" fill="white"/>
<path d="M224.501 51.6348H65.1139C61.377 51.6348 58.3477 54.6641 58.3477 58.401V147.753C58.3477 151.49 61.377 154.519 65.1139 154.519H224.501C228.238 154.519 231.268 151.49 231.268 147.753V58.401C231.268 54.6641 228.238 51.6348 224.501 51.6348Z" fill="white"/>
<path d="M231.268 58.401V61.0772H58.3477V58.401C58.3476 56.603 59.0593 54.8781 60.3271 53.6031C61.595 52.3282 63.3159 51.607 65.1139 51.597H224.532C225.421 51.5999 226.301 51.7785 227.122 52.1223C227.942 52.4661 228.686 52.9685 229.312 53.6006C229.938 54.2327 230.433 54.9821 230.768 55.8059C231.104 56.6296 231.274 57.5115 231.268 58.401Z" fill="#E6FFC7"/>
<path d="M224.501 51.6348H65.1139C61.377 51.6348 58.3477 54.6641 58.3477 58.401V147.753C58.3477 151.49 61.377 154.519 65.1139 154.519H224.501C228.238 154.519 231.268 151.49 231.268 147.753V58.401C231.268 54.6641 228.238 51.6348 224.501 51.6348Z" stroke="#263238" stroke-linecap="round" stroke-linejoin="round"/>
<path d="M231.268 58.401V61.0772H58.3477V58.401C58.3476 56.603 59.0593 54.8781 60.3271 53.6031C61.595 52.3282 63.3159 51.607 65.1139 51.597H224.532C225.421 51.5999 226.301 51.7785 227.122 52.1223C227.942 52.4661 228.686 52.9685 229.312 53.6006C229.938 54.2327 230.433 54.9821 230.768 55.8059C231.104 56.6296 231.274 57.5115 231.268 58.401Z" stroke="#263238" stroke-linecap="round" stroke-linejoin="round"/>
<path d="M77.7691 56.3522C77.7706 56.6949 77.6703 57.0304 77.481 57.3161C77.2917 57.6018 77.0218 57.8249 76.7056 57.9571C76.3894 58.0893 76.0411 58.1246 75.7048 58.0587C75.3684 57.9927 75.0593 57.8284 74.8164 57.5866C74.5735 57.3448 74.4079 57.0364 74.3405 56.7003C74.273 56.3643 74.3069 56.0158 74.4377 55.699C74.5685 55.3822 74.7904 55.1114 75.0753 54.9208C75.3601 54.7303 75.6951 54.6285 76.0379 54.6285C76.4957 54.6285 76.9349 54.8099 77.2594 55.1329C77.5838 55.456 77.7671 55.8944 77.7691 56.3522Z" fill="#263238"/>
<path d="M86.8033 56.3522C86.8048 56.6949 86.7045 57.0304 86.5152 57.3161C86.3259 57.6018 86.056 57.8249 85.7398 57.9571C85.4236 58.0893 85.0753 58.1246 84.739 58.0587C84.4026 57.9927 84.0934 57.8284 83.8506 57.5866C83.6077 57.3448 83.4421 57.0364 83.3746 56.7003C83.3072 56.3643 83.3411 56.0158 83.4719 55.699C83.6027 55.3822 83.8246 55.1114 84.1094 54.9208C84.3943 54.7303 84.7293 54.6285 85.072 54.6285C85.5299 54.6285 85.9691 54.8099 86.2936 55.1329C86.618 55.456 86.8013 55.8944 86.8033 56.3522Z" fill="#263238"/>
<path d="M94.1062 58.0835C95.0624 58.0835 95.8375 57.3084 95.8375 56.3522C95.8375 55.3961 95.0624 54.621 94.1062 54.621C93.1501 54.621 92.375 55.3961 92.375 56.3522C92.375 57.3084 93.1501 58.0835 94.1062 58.0835Z" fill="#263238"/>
<path d="M120.279 68.5692H71.3883C69.8476 68.5692 68.5986 69.8181 68.5986 71.3588V94.878C68.5986 96.4187 69.8476 97.6676 71.3883 97.6676H120.279C121.819 97.6676 123.068 96.4187 123.068 94.878V71.3588C123.068 69.8181 121.819 68.5692 120.279 68.5692Z" stroke="#263238" stroke-linecap="round" stroke-linejoin="round"/>
<path d="M71.8047 94.0086H119.032" stroke="#263238" stroke-linecap="round" stroke-linejoin="round"/>
<path d="M80.7935 88.452H75.3125V93.933H80.7935V88.452Z" fill="#E6FFC7" stroke="#263238" stroke-miterlimit="10"/>
<path d="M88.814 81.2473H83.333V94.0086H88.814V81.2473Z" fill="#E6FFC7" stroke="#263238" stroke-miterlimit="10"/>
<path d="M97.8482 83.4397H92.3672V94.1371H97.8482V83.4397Z" fill="#E6FFC7" stroke="#263238" stroke-miterlimit="10"/>
<path d="M107.344 72.7877H101.863V93.7667H107.344V72.7877Z" fill="#E6FFC7" stroke="#263238" stroke-miterlimit="10"/>
<path d="M116.832 72.954H111.351V93.933H116.832V72.954Z" fill="#E6FFC7" stroke="#263238" stroke-miterlimit="10"/>
<path d="M190.602 99.1721C199.066 99.1721 205.927 92.3112 205.927 83.848C205.927 75.3847 199.066 68.5238 190.602 68.5238C182.139 68.5238 175.278 75.3847 175.278 83.848C175.278 92.3112 182.139 99.1721 190.602 99.1721Z" fill="#E6FFC7" stroke="#263238" stroke-miterlimit="10"/>
<path d="M191.857 93.4038V94.9763H189.286V93.4038C188.231 93.1484 187.297 92.5333 186.646 91.664C185.995 90.7948 185.667 89.7259 185.718 88.641V87.9304L188.629 87.6128V88.3688C188.629 89.8279 189.385 90.7124 190.572 90.7124C190.829 90.7338 191.088 90.6992 191.331 90.6109C191.574 90.5227 191.795 90.3829 191.979 90.2012C192.163 90.0195 192.306 89.8002 192.397 89.5583C192.488 89.3164 192.525 89.0576 192.507 88.7998C192.507 87.4012 191.199 86.1991 189.657 84.9215C187.827 83.4095 186.005 81.6102 186.005 79.07C186.005 76.5299 187.2 74.8138 189.286 74.2997V72.7196H191.857V74.2846C193.966 74.776 195.191 76.5526 195.191 79.0852V79.5992L192.28 79.9092V79.38C192.28 77.868 191.683 77.0364 190.625 77.0364C189.566 77.0364 188.969 77.6941 188.969 78.9491C188.969 80.3477 190.315 81.5195 191.827 82.8274C193.626 84.3394 195.478 86.1386 195.478 88.6788C195.523 89.7656 195.184 90.8335 194.523 91.6968C193.861 92.5602 192.918 93.1642 191.857 93.4038Z" fill="#263238"/>
<path d="M67.3291 112.531H71.8046" stroke="#263238" stroke-linecap="round" stroke-linejoin="round"/>
<path d="M67.3291 121.179H71.8046" stroke="#263238" stroke-linecap="round" stroke-linejoin="round"/>
<path d="M67.3291 129.835H71.8046" stroke="#263238" stroke-linecap="round" stroke-linejoin="round"/>
<path d="M67.3291 138.484H71.8046" stroke="#263238" stroke-linecap="round" stroke-linejoin="round"/>
<path d="M81.6699 145.016V141.538" stroke="#263238" stroke-linecap="round" stroke-linejoin="round"/>
<path d="M88.7617 145.016V141.538" stroke="#263238" stroke-linecap="round" stroke-linejoin="round"/>
<path d="M95.8525 145.016V141.538" stroke="#263238" stroke-linecap="round" stroke-linejoin="round"/>
<path d="M102.951 145.016V141.538" stroke="#263238" stroke-linecap="round" stroke-linejoin="round"/>
<path d="M110.043 145.016V141.538" stroke="#263238" stroke-linecap="round" stroke-linejoin="round"/>
<path d="M117.134 145.016V141.538" stroke="#263238" stroke-linecap="round" stroke-linejoin="round"/>
<path d="M124.226 145.016V141.538" stroke="#263238" stroke-linecap="round" stroke-linejoin="round"/>
<path d="M131.324 145.016V141.538" stroke="#263238" stroke-linecap="round" stroke-linejoin="round"/>
<path d="M138.416 145.016V141.538" stroke="#263238" stroke-linecap="round" stroke-linejoin="round"/>
<path d="M145.507 145.016V141.538" stroke="#263238" stroke-linecap="round" stroke-linejoin="round"/>
<path d="M152.599 145.016V141.538" stroke="#263238" stroke-linecap="round" stroke-linejoin="round"/>
<path d="M159.697 145.016V141.538" stroke="#263238" stroke-linecap="round" stroke-linejoin="round"/>
<path d="M166.788 145.016V141.538" stroke="#263238" stroke-linecap="round" stroke-linejoin="round"/>
<path d="M173.88 145.016V141.538" stroke="#263238" stroke-linecap="round" stroke-linejoin="round"/>
<path d="M180.971 145.016V141.538" stroke="#263238" stroke-linecap="round" stroke-linejoin="round"/>
<path d="M187.798 145.016V141.538" stroke="#263238" stroke-linecap="round" stroke-linejoin="round"/>
<path d="M194.624 145.016V141.538" stroke="#263238" stroke-linecap="round" stroke-linejoin="round"/>
<path d="M201.443 145.016V141.538" stroke="#263238" stroke-linecap="round" stroke-linejoin="round"/>
<path d="M219.496 107.239V140.85C219.496 143.156 217.153 145.016 214.265 145.016H72.5752C71.7125 145.046 70.8543 144.878 70.0675 144.522C69.2808 144.167 68.5867 143.635 68.0392 142.967C67.5662 142.361 67.3011 141.619 67.2832 140.85V107.239C67.2832 104.971 69.6268 103.073 72.5147 103.073H214.265C217.153 103.073 219.496 104.933 219.496 107.239Z" stroke="#E6FFC7" stroke-linecap="round" stroke-linejoin="round"/>
<path d="M176.374 42.1394L131.142 103.073L113.845 126.373L94.9452 114.337L71.8191 145.016H71.4865C70.7614 145.017 70.0487 144.828 69.4189 144.468C68.7891 144.109 68.264 143.592 67.8955 142.967L93.8792 108.486L112.779 120.499L125.714 103.111L172.881 39.6068L176.374 42.1394Z" fill="#263238"/>
<path d="M164.898 42.9105L181.523 32.8331L176.926 50.2664L173.993 42.1999L164.898 42.9105Z" fill="#263238"/>
<path d="M322.23 234.753H56.3523L26.5508 261.251" stroke="#263238" stroke-linecap="round" stroke-linejoin="round"/>
<path d="M56.5186 216.201V164.679" stroke="#263238" stroke-linecap="round" stroke-linejoin="round"/>
<path d="M56.5186 231.759V221.795" stroke="#263238" stroke-linecap="round" stroke-linejoin="round"/>
<path d="M306.226 109.408C306.226 109.408 306.226 106.294 301.864 101.939C297.502 97.5845 294.704 95.0897 294.704 95.0897C294.704 95.0897 292.52 102.249 296.572 106.611C299.548 109.684 302.778 112.501 306.226 115.033V109.408Z" fill="#E6FFC7"/>
<path d="M299.898 128.86C299.898 128.86 299.898 125.745 295.536 121.383C291.173 117.021 288.376 114.534 288.376 114.534C288.376 114.534 286.199 121.693 290.244 126.055C293.224 129.127 296.453 131.946 299.898 134.485V128.86Z" fill="#E6FFC7"/>
<path d="M305.946 114.715C305.946 114.715 306.279 111.616 311.072 107.738C315.865 103.859 318.919 101.69 318.919 101.69C318.919 101.69 320.325 109.061 315.842 112.946C312.557 115.681 309.05 118.136 305.356 120.287L305.946 114.715Z" fill="#E6FFC7"/>
<path d="M298.302 137.683C298.302 137.683 298.96 134.659 304.131 131.287C309.302 127.915 312.56 126.086 312.56 126.086C312.56 126.086 313.188 133.547 308.342 136.965C304.79 139.339 301.045 141.41 297.146 143.156L298.302 137.683Z" fill="#E6FFC7"/>
<path d="M299.747 162.714C299.747 162.714 299.747 159.599 304.102 155.245C308.456 150.89 311.261 148.395 311.261 148.395C311.261 148.395 313.446 155.562 309.394 159.917C306.422 162.994 303.195 165.814 299.747 168.346V162.714Z" fill="#E6FFC7"/>
<path d="M299.671 168.83C299.671 168.83 300.11 165.745 296.413 160.816C292.716 155.887 290.305 153.014 290.305 153.014C290.305 153.014 287.145 159.818 290.524 164.687C293.036 168.145 295.833 171.387 298.885 174.379L299.671 168.83Z" fill="#E6FFC7"/>
<path d="M295.369 186.936C295.369 186.936 295.369 183.829 299.731 179.467C304.093 175.105 306.891 172.663 306.891 172.663C306.891 172.663 309.075 179.822 305.023 184.177C302.047 187.252 298.818 190.072 295.369 192.606V186.936Z" fill="#E6FFC7"/>
<path d="M298.28 203.364C298.28 203.364 297.524 200.34 300.616 195.048C303.708 189.756 305.81 186.619 305.81 186.619C305.81 186.619 309.726 192.999 306.921 198.238C304.817 201.962 302.404 205.502 299.709 208.822L298.28 203.364Z" fill="#E6FFC7"/>
<path d="M306.618 108.637C306.398 111.877 306 115.103 305.424 118.299C303.7 127.205 299.376 132.95 297.667 140.979C295.959 149.008 300.896 159.387 299.573 169.707C298.25 180.026 294.22 185.779 295.354 192.674C296.488 199.569 302.536 218.227 302.536 218.227" stroke="#263238" stroke-width="1.17749" stroke-linecap="round" stroke-linejoin="round"/>
<path d="M305.908 116.787L310.603 113.173" stroke="#263238" stroke-width="1.17749" stroke-linecap="round" stroke-linejoin="round"/>
<path d="M306.12 112.636L304.162 109.136" stroke="#263238" stroke-width="1.17749" stroke-linecap="round" stroke-linejoin="round"/>
<path d="M297.933 140.616C297.933 140.616 301.864 137.66 305.908 134.712" stroke="#263238" stroke-width="1.17749" stroke-linecap="round" stroke-linejoin="round"/>
<path d="M299.898 134.447C299.898 134.447 296.617 128.021 292.905 123.757" stroke="#263238" stroke-width="1.17749" stroke-linecap="round" stroke-linejoin="round"/>
<path d="M299.897 167.144C302.15 163.007 304.989 159.218 308.327 155.895" stroke="#263238" stroke-width="1.17749" stroke-linecap="round" stroke-linejoin="round"/>
<path d="M299.134 171.514C297.928 168.701 296.492 165.993 294.84 163.417C292.572 160.03 292.209 159.592 292.209 159.592" stroke="#263238" stroke-width="1.17749" stroke-linecap="round" stroke-linejoin="round"/>
<path d="M295.369 192.667C296.367 190.191 297.553 187.795 298.915 185.5C300.275 183.362 301.807 181.34 303.496 179.452" stroke="#263238" stroke-width="1.17749" stroke-linecap="round" stroke-linejoin="round"/>
<path d="M299.701 208.785C299.473 206.422 299.88 204.042 300.881 201.89C302.521 198.722 304.373 194.564 305.145 192.931" stroke="#263238" stroke-width="1.17749" stroke-linecap="round" stroke-linejoin="round"/>
<path d="M277.679 151.003C277.679 151.003 277.339 149.061 279.6 145.848C281.86 142.635 283.38 140.767 283.38 140.767C283.38 140.767 285.519 145.016 283.455 148.191C281.922 150.438 280.202 152.552 278.314 154.511L277.679 151.003Z" fill="#E6FFC7"/>
<path d="M283.757 162.54C283.757 162.54 283.417 160.582 285.678 157.376C287.938 154.171 289.458 152.304 289.458 152.304C289.458 152.304 291.597 156.56 289.533 159.728C288.002 161.976 286.282 164.091 284.393 166.048L283.757 162.54Z" fill="#E6FFC7"/>
<path d="M278.427 154.3C278.427 154.3 277.898 152.394 274.458 150.52C271.019 148.645 268.879 147.571 268.879 147.571C268.879 147.571 268.796 152.311 272.039 154.3C274.395 155.658 276.86 156.817 279.41 157.762L278.427 154.3Z" fill="#E6FFC7"/>
<path d="M285.715 167.87C285.715 167.87 284.96 166.033 281.361 164.498C277.762 162.963 275.502 162.154 275.502 162.154C275.502 162.154 275.918 166.895 279.342 168.512C281.829 169.615 284.403 170.508 287.038 171.181L285.715 167.87Z" fill="#E6FFC7"/>
<path d="M287.53 183.708C287.53 183.708 287.189 181.757 283.984 179.497C280.778 177.237 278.745 175.974 278.745 175.974C278.745 175.974 278.155 180.714 281.172 182.997C283.37 184.594 285.699 186.003 288.134 187.208L287.53 183.708Z" fill="#E6FFC7"/>
<path d="M288.232 187.556C288.232 187.556 287.62 185.674 289.404 182.181C291.188 178.688 292.428 176.624 292.428 176.624C292.428 176.624 295.15 180.525 293.562 183.965C292.351 186.406 290.94 188.743 289.344 190.95L288.232 187.556Z" fill="#E6FFC7"/>
<path d="M293.706 203.304C293.706 203.304 293.933 201.338 297.002 198.896C300.072 196.454 302.03 195.116 302.03 195.116C302.03 195.116 302.892 199.803 300.011 202.268C297.908 203.988 295.665 205.531 293.306 206.879L293.706 203.304Z" fill="#E6FFC7"/>
<path d="M292.897 198.45C292.897 198.45 292.557 196.492 289.352 194.232C286.146 191.971 284.12 190.716 284.12 190.716C284.12 190.716 283.53 195.456 286.539 197.739C288.741 199.335 291.072 200.744 293.51 201.95L292.897 198.45Z" fill="#E6FFC7"/>
<path d="M292.852 209.064C292.852 209.064 293.026 207.083 290.494 204.09C287.961 201.096 286.32 199.35 286.32 199.35C286.32 199.35 284.551 203.772 286.887 206.758C288.613 208.864 290.509 210.824 292.557 212.617L292.852 209.064Z" fill="#E6FFC7"/>
<path d="M277.339 150.55C277.831 152.56 278.434 154.541 279.146 156.484C281.187 161.875 284.513 165.012 286.464 169.866C288.414 174.719 286.464 181.757 288.392 188.085C290.319 194.413 293.495 197.565 293.517 202.033C293.54 206.501 291.816 218.847 291.816 218.847" stroke="#263238" stroke-width="1.17749" stroke-linecap="round" stroke-linejoin="round"/>
<path d="M278.677 155.592L275.343 153.846" stroke="#263238" stroke-width="1.17749" stroke-linecap="round" stroke-linejoin="round"/>
<path d="M278.087 153.014L278.941 150.61" stroke="#263238" stroke-width="1.17749" stroke-linecap="round" stroke-linejoin="round"/>
<path d="M286.267 169.662C286.267 169.662 283.477 168.24 280.627 166.827" stroke="#263238" stroke-width="1.17749" stroke-linecap="round" stroke-linejoin="round"/>
<path d="M284.362 166.048C285.182 163.46 286.264 160.962 287.59 158.594" stroke="#263238" stroke-width="1.17749" stroke-linecap="round" stroke-linejoin="round"/>
<path d="M287.916 186.52C286.055 184.172 283.866 182.104 281.414 180.382" stroke="#263238" stroke-width="1.17749" stroke-linecap="round" stroke-linejoin="round"/>
<path d="M288.868 189.181C289.31 187.292 289.909 185.444 290.66 183.655C291.711 181.274 291.892 180.964 291.892 180.964" stroke="#263238" stroke-width="1.17749" stroke-linecap="round" stroke-linejoin="round"/>
<path d="M293.373 205.405C294.455 204.062 295.654 202.817 296.956 201.686C297.786 201.071 298.565 200.391 299.285 199.652" stroke="#263238" stroke-width="1.17749" stroke-linecap="round" stroke-linejoin="round"/>
<path d="M293.517 202.033C292.614 200.591 291.603 199.219 290.493 197.928C289.408 196.743 288.227 195.648 286.963 194.655" stroke="#263238" stroke-width="1.17749" stroke-linecap="round" stroke-linejoin="round"/>
<path d="M292.572 212.617C292.452 211.104 291.93 209.651 291.06 208.407C289.684 206.592 288.036 204.188 287.416 203.243" stroke="#263238" stroke-width="1.17749" stroke-linecap="round" stroke-linejoin="round"/>
<path d="M307.072 240.136H287.22C286.825 240.136 286.446 239.982 286.164 239.706C285.881 239.431 285.717 239.056 285.708 238.662L282.857 216.692H311.374L308.524 238.662C308.514 239.046 308.359 239.412 308.089 239.686C307.82 239.96 307.456 240.121 307.072 240.136Z" fill="#263238"/>
<path d="M311.147 220.404H282.887C282.299 220.406 281.734 220.175 281.316 219.761C280.898 219.347 280.661 218.785 280.657 218.197C280.667 217.61 280.904 217.049 281.318 216.633C281.733 216.217 282.293 215.978 282.88 215.967H311.147C311.439 215.966 311.729 216.022 312 216.134C312.27 216.245 312.516 216.408 312.723 216.615C312.93 216.821 313.095 217.067 313.207 217.337C313.319 217.607 313.377 217.897 313.377 218.189C313.376 218.481 313.317 218.77 313.205 219.039C313.092 219.308 312.928 219.553 312.721 219.759C312.513 219.964 312.268 220.127 311.998 220.238C311.728 220.349 311.439 220.405 311.147 220.404Z" fill="#263238"/>
<path d="M247.439 132.534C247.438 138.739 245.335 144.76 241.473 149.616C237.611 154.472 232.218 157.876 226.173 159.274H226.09C225.372 159.433 224.653 159.576 223.912 159.682C222.613 159.867 221.302 159.961 219.989 159.962C212.813 159.936 205.933 157.102 200.822 152.066C195.71 147.03 192.774 140.193 192.641 133.018C192.509 125.844 195.191 118.903 200.113 113.682C205.035 108.461 211.806 105.374 218.976 105.084C219.225 105.084 219.49 105.084 219.732 105.084C219.812 105.076 219.893 105.076 219.974 105.084C220.067 105.076 220.16 105.076 220.253 105.084C223.957 105.108 227.616 105.893 231.004 107.39C235.89 109.531 240.047 113.049 242.966 117.514C245.885 121.98 247.439 127.199 247.439 132.534Z" fill="#E6FFC7"/>
<path opacity="0.4" d="M231.019 107.397C199.32 105.749 199.169 140.941 199.169 140.941C199.169 140.941 194.33 129.457 202.23 116.749C206.645 109.635 214.326 106.498 220.269 105.107C223.971 105.126 227.63 105.905 231.019 107.397Z" fill="white"/>
<path d="M247.439 132.534C247.439 138.754 245.326 144.789 241.448 149.651C237.569 154.514 232.154 157.914 226.09 159.297C224.089 159.757 222.042 159.988 219.989 159.985C212.709 160.119 205.673 157.356 200.43 152.303C195.187 147.25 192.166 140.321 192.032 133.041C191.898 125.761 194.661 118.725 199.714 113.482C204.767 108.239 211.696 105.218 218.976 105.084C219.309 105.084 219.649 105.084 219.989 105.084C227.269 105.086 234.25 107.979 239.397 113.126C244.545 118.274 247.437 125.255 247.439 132.534Z" stroke="#263238" stroke-linecap="round" stroke-linejoin="round"/>
<path d="M247.439 132.534C247.439 138.754 245.327 144.789 241.448 149.651C237.569 154.514 232.154 157.914 226.09 159.297C225.757 159.297 225.417 159.297 225.077 159.297C218.339 159.279 211.843 156.784 206.825 152.287C201.807 147.79 198.617 141.605 197.864 134.91C197.11 128.214 198.845 121.475 202.738 115.975C206.631 110.475 212.41 106.599 218.976 105.084C219.309 105.084 219.649 105.084 219.989 105.084C227.269 105.086 234.25 107.979 239.397 113.126C244.545 118.274 247.437 125.255 247.439 132.534Z" stroke="#263238" stroke-linecap="round" stroke-linejoin="round"/>
<path d="M229.446 149.688L230.157 152.591L225.409 153.748L224.699 150.852C220.45 150.852 217.041 148.093 215.952 143.663L215.627 142.347L220.866 140.45L221.199 141.818C221.856 144.509 223.633 145.802 225.848 145.258C226.334 145.182 226.798 145.002 227.208 144.73C227.618 144.457 227.964 144.099 228.222 143.68C228.48 143.261 228.644 142.791 228.702 142.303C228.761 141.814 228.713 141.319 228.562 140.85C227.927 138.265 224.963 136.647 221.531 134.976C217.471 133.011 213.283 130.516 212.134 125.821C211.015 121.24 212.421 117.422 216.043 115.532L215.332 112.629L220.072 111.472L220.783 114.368C224.903 114.307 227.972 117.021 229.099 121.708L229.333 122.661L224.102 124.559L223.837 123.508C223.141 120.658 221.675 119.456 219.724 119.932C217.774 120.408 216.965 121.897 217.532 124.211C218.167 126.796 221.168 128.354 224.563 130.092C228.577 132.126 232.811 134.553 233.96 139.24C235.116 143.753 233.272 147.775 229.446 149.688Z" stroke="#263238" stroke-miterlimit="10"/>
<path opacity="0.3" d="M229.446 149.688L230.157 152.591L225.409 153.748L224.699 150.852C220.45 150.852 217.041 148.093 215.952 143.663L215.627 142.347L220.866 140.45L221.199 141.818C221.856 144.509 223.633 145.802 225.848 145.258C226.334 145.182 226.798 145.002 227.208 144.73C227.618 144.457 227.964 144.099 228.222 143.68C228.48 143.261 228.644 142.791 228.702 142.303C228.761 141.814 228.713 141.319 228.562 140.85C227.927 138.265 224.963 136.647 221.531 134.976C217.471 133.011 213.283 130.516 212.134 125.821C211.015 121.24 212.421 117.422 216.043 115.532L215.332 112.629L220.072 111.472L220.783 114.368C224.903 114.307 227.972 117.021 229.099 121.708L229.333 122.661L224.102 124.559L223.837 123.508C223.141 120.658 221.675 119.456 219.724 119.932C217.774 120.408 216.965 121.897 217.532 124.211C218.167 126.796 221.168 128.354 224.563 130.092C228.577 132.126 232.811 134.553 233.96 139.24C235.116 143.753 233.272 147.775 229.446 149.688Z" fill="black"/>
<path d="M205.958 156.137L211.757 155.872" stroke="#263238" stroke-linecap="round" stroke-linejoin="round"/>
<path d="M203.168 154.209L208.226 153.778" stroke="#263238" stroke-linecap="round" stroke-linejoin="round"/>
<path d="M200.9 152.175L205.958 151.744" stroke="#263238" stroke-linecap="round" stroke-linejoin="round"/>
<path d="M200.204 113.498H204.536" stroke="#263238" stroke-linecap="round" stroke-linejoin="round"/>
<path d="M202.344 111.502L206.661 111.306" stroke="#263238" stroke-linecap="round" stroke-linejoin="round"/>
<path d="M205.051 109.499L209.602 109.068" stroke="#263238" stroke-linecap="round" stroke-linejoin="round"/>
<path opacity="0.3" d="M226.173 159.274H226.09C224.089 159.735 222.042 159.965 219.989 159.962C212.813 159.936 205.933 157.102 200.822 152.066C195.71 147.03 192.774 140.193 192.641 133.018C192.509 125.844 195.191 118.903 200.113 113.682C205.035 108.461 211.806 105.374 218.976 105.084C219.225 105.084 219.49 105.084 219.732 105.084C213.041 107.193 201.815 112.583 198.813 123.825C194.572 139.799 204.12 157.936 226.173 159.274Z" fill="black"/>
<path opacity="0.1" d="M247.439 132.534C247.438 138.739 245.335 144.76 241.473 149.616C237.611 154.472 232.218 157.876 226.173 159.274H226.089C225.371 159.433 224.653 159.576 223.912 159.682L231.019 107.375C235.905 109.519 240.06 113.04 242.976 117.509C245.893 121.977 247.443 127.199 247.439 132.534Z" fill="black"/>
<path d="M263.013 89.3214C260.839 92.3916 257.689 94.6343 254.076 95.6833C250.464 96.7323 246.602 96.5257 243.122 95.0972L243.024 95.0519C242.508 94.8249 242.003 94.5726 241.512 94.2959C240.957 93.9976 240.422 93.6643 239.909 93.2979C236.561 90.7404 234.307 87.007 233.605 82.8521C232.902 78.6973 233.803 74.4307 236.125 70.9144C238.447 67.3981 242.018 64.8943 246.115 63.9089C250.212 62.9235 254.53 63.5299 258.197 65.6057L258.568 65.84C258.741 65.9383 258.908 66.0593 259.082 66.1802C259.256 66.3012 259.588 66.5507 259.838 66.7472C263.142 69.3979 265.311 73.2097 265.901 77.4048C266.491 81.5998 265.458 85.862 263.013 89.3214Z" fill="#E6FFC7"/>
<path opacity="0.4" d="M237.959 89.5482C237.959 89.5482 235.245 81.5573 238.851 75.6756C243.387 68.3046 250.335 64.9404 259.792 66.7548C259.792 66.7548 254.667 63.2923 246.086 65.7493C237.505 68.2063 232.901 80.015 237.959 89.5482Z" fill="white"/>
<path d="M263.013 89.3289C260.838 92.3965 257.686 94.6362 254.074 95.6824C250.462 96.7286 246.601 96.5197 243.123 95.0897C241.975 94.6206 240.884 94.022 239.872 93.3055C236.502 90.7204 234.249 86.9441 233.574 82.7508C232.9 78.5576 233.855 74.2651 236.244 70.7535C238.633 67.242 242.275 64.7775 246.423 63.8652C250.571 62.953 254.911 63.6623 258.553 65.8476C258.719 65.9459 258.893 66.0593 259.059 66.1802C262.648 68.7301 265.079 72.5984 265.82 76.9375C266.561 81.2767 265.552 85.7326 263.013 89.3289Z" stroke="#263238" stroke-linecap="round" stroke-linejoin="round"/>
<path d="M263.013 89.329C260.837 92.3965 257.686 94.6362 254.074 95.6824C250.461 96.7287 246.601 96.5197 243.122 95.0897L242.616 94.757C239.332 92.3763 237.03 88.8773 236.146 84.9184C235.261 80.9596 235.853 76.8139 237.812 73.2614C239.77 69.7089 242.959 66.9946 246.779 65.6292C250.599 64.2638 254.786 64.3415 258.552 65.8476C258.719 65.9459 258.893 66.0593 259.059 66.1802C262.647 68.7301 265.078 72.5984 265.819 76.9375C266.561 81.2767 265.551 85.7326 263.013 89.329Z" stroke="#263238" stroke-linecap="round" stroke-linejoin="round"/>
<path d="M248.128 91.5365L247.47 93.2148L244.718 92.1337L245.376 90.4478C244.355 89.7289 243.615 88.6774 243.284 87.4734C242.953 86.2694 243.051 84.9877 243.561 83.8479L243.864 83.0919L247.114 83.9765L246.805 84.7778C246.192 86.3352 246.608 87.5901 247.893 88.0967C248.16 88.2294 248.452 88.3026 248.75 88.3112C249.048 88.3197 249.344 88.2635 249.618 88.1463C249.892 88.0291 250.137 87.8537 250.337 87.6324C250.536 87.4111 250.685 87.149 250.774 86.8644C251.363 85.3524 250.464 83.5304 249.352 81.5119C248.037 79.1229 246.842 76.4316 247.908 73.71C248.974 70.9884 250.985 69.6578 253.427 69.9905L254.092 68.3121L256.837 69.3932L256.179 71.064C258.235 72.4701 258.802 74.844 257.736 77.6034L257.517 78.1477L254.266 77.2632L254.508 76.6508C255.158 75.0027 254.856 73.8914 253.752 73.4454C252.648 72.9993 251.703 73.4454 251.174 74.7986C250.585 76.3106 251.53 78.1099 252.595 80.1511C253.873 82.5627 255.113 85.239 254.047 87.953C253.643 89.1534 252.827 90.1719 251.743 90.8279C250.659 91.4839 249.379 91.7349 248.128 91.5365Z" stroke="#263238" stroke-miterlimit="10"/>
<path opacity="0.3" d="M248.128 91.5365L247.47 93.2148L244.718 92.1337L245.376 90.4478C244.355 89.7289 243.615 88.6774 243.284 87.4734C242.953 86.2694 243.051 84.9877 243.561 83.8479L243.864 83.0919L247.114 83.9765L246.805 84.7778C246.192 86.3352 246.608 87.5901 247.893 88.0967C248.16 88.2294 248.452 88.3026 248.75 88.3112C249.048 88.3197 249.344 88.2635 249.618 88.1463C249.892 88.0291 250.137 87.8537 250.337 87.6324C250.536 87.4111 250.685 87.149 250.774 86.8644C251.363 85.3524 250.464 83.5304 249.352 81.5119C248.037 79.1229 246.842 76.4316 247.908 73.71C248.974 70.9884 250.985 69.6578 253.427 69.9905L254.092 68.3121L256.837 69.3932L256.179 71.064C258.235 72.4701 258.802 74.844 257.736 77.6034L257.517 78.1477L254.266 77.2632L254.508 76.6508C255.158 75.0027 254.856 73.8914 253.752 73.4454C252.648 72.9993 251.703 73.4454 251.174 74.7986C250.585 76.3106 251.53 78.1099 252.595 80.1511C253.873 82.5627 255.113 85.239 254.047 87.953C253.643 89.1534 252.827 90.1719 251.743 90.8279C250.659 91.4839 249.379 91.7349 248.128 91.5365Z" fill="black"/>
<path opacity="0.3" d="M258.159 65.6132C253.623 64.8043 247.877 64.3583 244.778 66.3692C239.085 70.0207 235.539 74.6247 235.592 82.0865C235.645 89.5482 242.616 94.7797 242.616 94.7797L243.024 95.0745C241.912 94.6102 240.855 94.0245 239.871 93.3282C236.522 90.7706 234.269 87.0373 233.567 82.8824C232.864 78.7275 233.765 74.4609 236.087 70.9446C238.409 67.4283 241.98 64.9246 246.077 63.9391C250.174 62.9537 254.492 63.5602 258.159 65.6359V65.6132Z" fill="black"/>
<path opacity="0.1" d="M263.013 89.3214C260.84 92.3916 257.689 94.6343 254.077 95.6833C250.464 96.7323 246.603 96.5257 243.123 95.0972L243.025 95.0519C242.509 94.8249 242.004 94.5726 241.513 94.2959L259.793 66.7548C263.102 69.3988 265.279 73.206 265.877 77.3996C266.476 81.5932 265.451 85.8571 263.013 89.3214Z" fill="black"/>
<path d="M254.454 302.219C247.417 310.683 239.028 317.925 229.627 323.651C226.697 325.404 223.668 326.984 220.555 328.384C199.077 338.038 174.597 338.665 151.706 333.116C103.571 321.451 78.0335 278.964 74.7902 231.797C73.9208 219.051 71.9704 205.284 77.1338 193.158C82.2973 181.032 92.7377 173.502 104.546 168.27C113.119 164.453 122.38 161.89 130.795 159.796C146.022 156.034 162.084 157.691 176.223 164.483C186.119 169.178 193.165 177.335 201.488 184.207C202.37 184.933 203.257 185.656 204.149 186.377C212.558 193.144 221.396 199.359 230.609 204.982C244.603 213.517 258.929 221.568 267.873 235.902C282.138 258.749 270.103 283.621 254.454 302.219Z" fill="#E6FFC7"/>
<path opacity="0.4" d="M254.454 302.219C247.417 310.683 239.028 317.925 229.627 323.651C226.697 325.404 223.668 326.984 220.555 328.384C199.077 338.038 174.597 338.665 151.706 333.116C103.571 321.451 78.0335 278.964 74.7902 231.797C73.9208 219.051 71.9704 205.284 77.1338 193.158C82.2973 181.032 92.7377 173.502 104.546 168.27C113.119 164.453 122.38 161.89 130.795 159.796C146.022 156.034 162.084 157.691 176.223 164.483C186.119 169.178 193.165 177.335 201.488 184.207C202.37 184.933 203.257 185.656 204.149 186.377C212.558 193.144 221.396 199.359 230.609 204.982C244.603 213.517 258.929 221.568 267.873 235.902C282.138 258.749 270.103 283.621 254.454 302.219Z" fill="white"/>
<path d="M204.12 186.377C203.227 185.661 202.34 184.935 201.458 184.199C193.142 177.312 186.081 169.178 176.193 164.483C162.053 157.695 145.993 156.038 130.765 159.796C110.754 164.763 85.934 172.413 77.0888 193.166C71.9254 205.262 73.8758 219.051 74.7528 231.797C78.0338 278.964 103.572 321.451 151.706 333.116C177.894 339.467 206.138 337.728 229.627 323.651C239.028 317.925 247.417 310.683 254.454 302.219C270.103 283.621 282.139 258.749 267.888 235.902C258.952 221.538 244.626 213.517 230.625 204.982C221.396 199.361 212.542 193.146 204.12 186.377Z" stroke="#263238" stroke-miterlimit="10"/>
<path d="M131.204 270.482C127.196 271.694 123.307 273.268 119.584 275.184" stroke="#263238" stroke-linecap="round" stroke-linejoin="round"/>
<path d="M155.736 265.81C149.882 266.316 144.071 267.238 138.348 268.569" stroke="#263238" stroke-linecap="round" stroke-linejoin="round"/>
<path d="M150.633 264.6C150.633 264.6 128.044 251.461 100.782 261.992" stroke="#263238" stroke-linecap="round" stroke-linejoin="round"/>
<path opacity="0.1" d="M254.454 302.219C247.417 310.683 239.028 317.925 229.627 323.651C226.698 325.404 223.668 326.984 220.555 328.384C218.097 327.631 215.682 326.745 213.32 325.73C199.213 319.682 187.374 309.453 175.807 299.368C168.829 293.32 161.738 287.121 153.384 283.137C142.088 277.796 129.236 276.737 117.217 280.158C123.433 273.143 131.884 268.493 141.137 266.997C135.165 261.561 126.856 259.278 118.782 259.134C110.708 258.99 106.263 259.981 98.3702 261.75C101.009 256.896 108.009 252.504 113.536 252.633C108.282 252.563 103.037 252.192 97.8259 251.521C90.6968 250.372 87.5065 241.98 86.4405 234.844C83.4921 215.188 86.4783 194.254 97.206 177.547C99.3298 174.214 101.787 171.106 104.539 168.27C113.112 164.453 122.373 161.89 130.787 159.796C146.015 156.034 162.077 157.691 176.216 164.483C186.112 169.178 193.158 177.335 201.481 184.207C202.363 184.933 203.25 185.656 204.142 186.377C212.55 193.144 221.389 199.359 230.602 204.982C244.596 213.517 258.922 221.568 267.865 235.902C282.139 258.749 270.103 283.621 254.454 302.219Z" fill="black"/>
<path d="M262.332 301.644C266.57 305.168 271.005 308.449 275.615 311.472C284.603 312.077 280.574 322.941 280.574 322.941L272.878 327.892C272.878 327.892 259.701 317.422 252.504 314.027C245.307 310.633 262.332 301.644 262.332 301.644Z" fill="white"/>
<path opacity="0.3" d="M198.457 187.261C198.457 187.261 197.224 175.067 195.259 171.642L165.412 165.564V163.251C165.412 163.251 166.1 159.229 159.447 156.711C152.794 154.194 138.929 157.467 135.353 160.174C131.778 162.88 133.085 167.537 133.085 167.537C133.085 167.537 121.065 173.608 115.667 175.921C111.249 177.96 106.941 180.231 102.762 182.725C102.762 182.725 100.313 210.758 100.797 217.267C101.281 223.776 100.404 229.9 100.963 233.506C101.522 237.112 101.961 239.161 105.741 242.23C109.521 245.299 112.961 249.79 122.872 245.337L121.488 244.241L186.731 222.264L198.457 187.261Z" fill="black"/>
<path d="M198.457 187.261C198.457 187.261 197.224 175.067 195.259 171.642L165.412 165.564V163.251C165.412 163.251 166.1 159.229 159.447 156.711C152.794 154.194 138.929 157.467 135.353 160.174C131.778 162.88 133.085 167.537 133.085 167.537C133.085 167.537 121.065 173.608 115.667 175.921C111.249 177.96 106.941 180.231 102.762 182.725C102.762 182.725 100.313 210.758 100.797 217.267C101.281 223.776 100.404 229.9 100.963 233.506C101.522 237.112 101.961 239.161 105.741 242.23C109.521 245.299 112.961 249.79 122.872 245.337L121.488 244.241L186.731 222.264L198.457 187.261Z" fill="#E6FFC7"/>
<path opacity="0.05" d="M198.457 187.261C198.457 187.261 197.224 175.067 195.259 171.642L165.412 165.564V163.251C165.412 163.251 166.1 159.229 159.447 156.711C152.794 154.194 138.929 157.467 135.353 160.174C131.778 162.88 133.085 167.537 133.085 167.537C133.085 167.537 121.065 173.608 115.667 175.921C111.249 177.96 106.941 180.231 102.762 182.725C102.762 182.725 100.313 210.758 100.797 217.267C101.281 223.776 100.404 229.9 100.963 233.506C101.522 237.112 101.961 239.161 105.741 242.23C109.521 245.299 112.961 249.79 122.872 245.337L121.488 244.241L186.731 222.264L198.457 187.261Z" fill="black"/>
<path opacity="0.1" d="M195.653 173.124H183.164C181.989 173.126 180.853 173.544 179.958 174.304C179.063 175.063 178.465 176.116 178.272 177.274L172.118 214.318C172.118 214.318 163.644 215.022 157.641 219.399C151.638 223.776 136.874 192.546 113.544 192.531C113.544 192.531 120.257 207.877 121.746 220.125C121.746 220.125 107.163 218.537 104.744 224.245C102.324 229.953 105.84 240.65 112.009 236.507C118.178 232.364 123.984 225.454 128.104 229.824C132.224 234.194 150.633 236.545 150.633 236.545L178.96 222.264L189.945 217.101L195.653 173.124Z" fill="black"/>
<path opacity="0.4" d="M156.001 154.761C156.001 154.761 163.092 156.726 164.241 159.108C165.39 161.489 165.269 167.514 165.269 167.514C163.548 171.542 160.941 175.128 157.641 178.008L152.349 167.514L152.825 179.414C152.825 179.414 142.786 177.743 138.522 174.538L134.266 171.325C134.266 171.325 132.428 165.277 132.693 163.228C132.958 161.179 140.616 157.021 140.616 157.021L156.001 154.761Z" fill="white"/>
<path d="M274.118 338.25C273.921 337.819 277.028 332.33 274.594 326.743C272.16 321.156 268.281 323.311 268.281 323.311C268.281 323.311 257.236 316.28 252.594 314.058C249.25 312.378 246.029 310.463 242.955 308.327L238.049 314.934L242.585 328.966L274.118 338.25Z" fill="#E6FFC7"/>
<path d="M267.881 322.971L282.063 331.635C282.063 331.635 292.035 325.239 296.79 320.824C301.546 316.409 312.228 307.004 312.228 307.004L319.032 297.849C319.032 297.849 314.314 292.013 306.452 296.7C296.291 302.748 283.901 311.532 275.637 311.449C275.637 311.449 277.263 321.602 267.934 322.971" fill="#E6FFC7"/>
<path d="M153.596 118.11C153.596 118.11 160.03 127.847 161.202 131C162.373 134.152 163.318 138.817 163.084 141.062C162.85 143.307 160.491 155.335 159.304 155.683L158.162 156.976L158.918 162.071C158.918 162.071 153.884 170.773 139.081 164.392C139.081 164.392 138.506 154.232 136.707 151.041C134.908 147.851 132.217 151.646 129.518 142.43C126.819 133.215 135.414 123.53 135.414 123.53L153.596 118.11Z" fill="white"/>
<path opacity="0.5" d="M312.855 295.006C312.855 295.006 305.56 296.276 303.194 300.593C300.827 304.91 296.284 312.931 294.734 316.809C293.184 320.688 280.37 330.054 280.37 330.054L282.071 331.635C282.071 331.635 292.504 325.186 298.801 319.055C305.099 312.924 318.987 297.501 318.987 297.501C318.987 297.501 317.989 296.511 312.855 295.006Z" fill="white"/>
<path opacity="0.5" d="M239.856 312.508L238.049 314.934L243.598 326.441L274.118 337.41L275.531 332.942C275.531 332.942 276 328.406 265.288 324.959C254.575 321.512 248.043 319.236 244.996 316.87C241.95 314.504 239.856 312.508 239.856 312.508Z" fill="white"/>
<path d="M139.104 227.049C139.104 227.049 129.76 225.643 125.398 233.286C121.036 240.93 121.482 244.241 121.482 244.241C121.482 244.241 127.658 249.85 136.148 249.533C144.638 249.215 156.998 239.493 161.028 236.326C165.057 233.158 175.218 224.094 182.151 225.968L182.907 219.414C182.907 219.414 182.226 216.473 176.299 217.267C170.372 218.061 168.044 221.44 166.131 221.44C164.218 221.44 162.411 219.603 158.571 226.165C158.563 226.165 145.084 228.554 139.104 227.049Z" fill="white"/>
<path d="M151.245 132.111C151.444 133.336 151.727 134.546 152.092 135.732C152.229 136.311 152.486 136.855 152.848 137.327C153.558 138.083 154.708 138.28 155.758 138.439C155.932 138.451 156.097 138.52 156.227 138.635C156.312 138.771 156.352 138.929 156.341 139.089C156.334 140.28 155.977 141.442 155.312 142.43" stroke="#263238" stroke-linecap="round" stroke-linejoin="round"/>
<path opacity="0.1" d="M246.123 304.668L239.855 312.477C239.855 312.477 246.735 318.835 253.857 321.194C260.978 323.553 273.445 327.998 275.531 331.423L274.73 327.348C274.73 327.348 255.233 315.388 250.757 312.53C249.434 311.663 248.328 310.502 247.524 309.139C246.721 307.776 246.241 306.246 246.123 304.668Z" fill="black"/>
<path opacity="0.1" d="M267.881 322.971L280.362 330.054C280.362 330.054 286.524 325.836 289.548 322.729C292.572 319.622 296.299 316.174 298.62 309.212C301.787 299.588 310.859 295.006 310.859 295.006C310.859 295.006 298.242 300.948 291.672 305.59C285.103 310.232 278.699 312.198 274.98 311.88C274.942 311.903 277.928 321.353 267.881 322.971Z" fill="black"/>
<path d="M146.845 144.147C146.845 144.147 151.751 147.995 156.847 146.551C156.847 146.551 152.038 156.076 146.845 144.147Z" fill="white" stroke="#263238" stroke-linecap="round" stroke-linejoin="round"/>
<path d="M146.663 135.831C146.807 136.889 146.482 137.804 145.953 137.879C145.423 137.955 144.872 137.123 144.728 136.088C144.584 135.052 144.902 134.114 145.439 134.039C145.975 133.963 146.55 134.772 146.663 135.831Z" fill="#263238"/>
<path d="M157.346 133.903C157.482 134.969 157.165 135.883 156.636 135.951C156.106 136.02 155.547 135.195 155.411 134.167C155.275 133.139 155.585 132.187 156.121 132.119C156.658 132.051 157.203 132.844 157.346 133.903Z" fill="#263238"/>
<path d="M145.908 131.34C145.908 131.34 143.05 129.866 141.017 133.026" stroke="#263238" stroke-linecap="round" stroke-linejoin="round"/>
<path d="M153.233 129.374C153.233 129.374 156.257 126.781 158.004 129.374" stroke="#263238" stroke-linecap="round" stroke-linejoin="round"/>
<path d="M136.2 141.07C136.2 141.07 134.363 138.356 132.42 138.439C130.477 138.522 129.706 141.243 130.402 143.874C131.097 146.505 133.993 150.179 136.185 149.832C137.422 149.672 138.55 149.044 139.338 148.078" stroke="#263238" stroke-linecap="round" stroke-linejoin="round"/>
<path d="M153.815 120.302C155.879 122.018 158.064 123.886 159.107 126.411C160.029 128.558 160.234 130.947 161.08 133.116C161.98 135.437 162.963 137.864 163.038 140.397C162.998 142.74 162.692 145.071 162.124 147.344C161.81 149.316 161.342 151.26 160.725 153.158C159.704 155.872 157.822 157.543 155.297 158.828C153.46 159.765 150.398 161.096 148.41 159.841C147.253 159.085 145.514 156.923 144.07 154.935" stroke="#263238" stroke-linecap="round" stroke-linejoin="round"/>
<path d="M136.2 149.832C136.2 149.832 139.451 157.8 138.665 163.402" stroke="#263238" stroke-linecap="round" stroke-linejoin="round"/>
<path d="M135.369 139.731C135.801 139.411 136.144 138.985 136.364 138.494C136.584 138.002 136.673 137.463 136.623 136.927C136.503 135.702 135.656 134.568 135.822 133.343C135.961 132.757 136.18 132.192 136.472 131.665C136.913 130.648 137.106 129.541 137.038 128.435C136.97 127.329 136.641 126.255 136.079 125.299C136.079 125.299 146.406 125.783 151.245 122.706C156.083 119.629 159.772 111.759 156.846 108.002C153.921 104.245 148.221 109.371 143.994 109.938C139.768 110.505 124.739 112.901 122.343 118.692C119.946 124.483 123.598 126.562 123.711 132.088C123.824 137.615 123.824 148.085 132.087 147.125C132.087 147.125 128.995 143.126 131.142 139.006C132.602 137.274 135.369 139.731 135.369 139.731Z" fill="#263238"/>
<path d="M155.622 114.534C157.025 115.626 158.187 116.995 159.038 118.556C159.888 120.117 160.409 121.836 160.567 123.606C161.028 127.749 168.376 135.8 163.077 140.389C163.077 140.389 161.844 135.513 161.118 133.109C160.393 130.705 159.463 126.305 158.246 124.793C157.029 123.281 150.572 117.989 150.572 117.989L155.622 114.534Z" fill="#263238"/>
<path d="M137.153 163.228C137.153 163.228 142.248 166.585 151.713 166.721L152.825 179.414C152.825 179.414 142.18 178.605 134.265 171.325C134.265 171.325 132.125 165.662 132.692 163.228C133.259 160.794 138.347 158.382 138.347 158.382" stroke="#263238" stroke-linecap="round" stroke-linejoin="round"/>
<path d="M158.563 157.55L158.866 162.086C156.87 164.165 154.423 165.756 151.714 166.736L157.641 178.023C157.641 178.023 164.71 172.519 165.413 166.736C165.413 166.736 165.473 160.816 164.241 159.123C163.009 157.429 158.518 156.636 158.518 156.636" stroke="#263238" stroke-linecap="round" stroke-linejoin="round"/>
<path opacity="0.8" d="M129.88 122.472C130.636 120.574 132.707 119.448 134.726 119.146C136.744 118.843 138.816 119.055 140.857 119.002C143.683 118.979 146.451 118.196 148.871 116.734C150.073 116.002 151.118 115.04 151.949 113.904C152.779 112.768 153.377 111.479 153.709 110.111" stroke="white" stroke-linecap="round" stroke-linejoin="round"/>
<path opacity="0.8" d="M125.004 122.102C126.282 118.223 130.424 115.827 134.499 115.487C136.518 115.313 138.559 115.547 140.547 115.313C142.536 115.078 144.652 114.247 145.703 112.515" stroke="white" stroke-linecap="round" stroke-linejoin="round"/>
<path d="M122.857 245.337C113.029 250.433 109.536 245.186 104.063 240.846C98.5895 236.507 102.18 228.75 101.039 216.314C99.8974 203.878 102.74 182.725 102.74 182.725C102.74 182.725 105.189 182.166 111.986 178.008C118.782 173.85 133.086 167.514 133.086 167.514" stroke="#263238" stroke-linecap="round" stroke-linejoin="round"/>
<path d="M132.594 226.513C132.594 226.513 131.037 221.576 126.637 221.448C122.237 221.319 115.297 223.3 110.353 232.651" stroke="#263238" stroke-linecap="round" stroke-linejoin="round"/>
<path d="M125.631 221.153C125.358 221.135 125.09 221.071 124.838 220.964C121.21 219.659 117.274 219.479 113.543 220.45" stroke="#263238" stroke-linecap="round" stroke-linejoin="round"/>
<path d="M111.011 189.476C119.017 198.321 122.918 210.024 126.615 221.364" stroke="#263238" stroke-linecap="round" stroke-linejoin="round"/>
<path d="M165.412 165.564C165.412 165.564 179.927 169.026 187.019 169.851C194.11 170.675 195.259 171.665 195.259 171.665L196.582 176.609" stroke="#263238" stroke-linecap="round" stroke-linejoin="round"/>
<path d="M233.052 174.167L183.617 176.065L179.58 226.906H188.047L230.973 217.297L236.371 175.384L233.052 174.167Z" fill="white"/>
<path d="M182.15 228.41L236.22 176.586L230.973 217.297L182.15 228.41Z" fill="#E6FFC7"/>
<path opacity="0.7" d="M182.15 228.41L236.22 176.586L230.973 217.297L182.15 228.41Z" fill="white"/>
<path d="M182.15 227.049L186.475 178.008L236.371 175.384L230.973 217.297L182.15 227.049Z" stroke="#263238" stroke-linecap="round" stroke-linejoin="round"/>
<path d="M215.338 199.146C215.006 202.132 213.41 204.4 211.777 204.218C210.144 204.037 209.101 201.459 209.434 198.473C209.766 195.486 211.369 193.218 213.002 193.4C214.635 193.581 215.678 196.159 215.338 199.146Z" fill="#263238"/>
<path d="M230.972 217.297C230.972 217.297 253.819 216.647 260.963 221.364C268.107 226.082 272.303 249.737 271.313 262.302C270.322 274.866 261.704 303.7 261.704 303.7L245.193 285.012C245.193 285.012 237.058 255.437 241.496 243.855C241.496 243.855 219.572 245.088 210.938 242.381C210.938 242.381 203.205 229.718 189.944 225.53L230.972 217.297Z" fill="#263238"/>
<path d="M265.189 304.192C259.325 298.717 254.059 292.635 249.48 286.048C241.489 273.702 230.443 261.856 219.081 252.61C209.926 245.186 207.854 233.09 196.56 227.019C177.849 216.987 161.67 236.923 155.622 240.96C149.574 244.997 139.104 249.571 139.104 249.571C139.104 249.571 142.929 263.935 154.163 265.636C165.397 267.337 176.76 259.588 182.135 263.33C187.51 267.072 191.487 283.78 209.238 293.57C223.745 301.568 243.515 309.37 253.713 314.632C255.981 315.811 257.675 317.051 258.96 317.754C262.483 319.675 266.248 321.935 269.801 324.173L282.04 331.627C282.04 331.627 294.325 324.362 299.043 317.664C299.67 316.764 300.978 314.367 302.203 312.054C304.872 306.996 308.251 302.46 312.931 299.958C316.166 298.212 319.047 297.69 318.979 297.509C318.669 296.934 312.802 293.933 308.818 295.573C300.381 299.058 283.515 312.447 275.554 311.449C271.851 309.405 268.377 306.972 265.189 304.192Z" stroke="#263238" stroke-miterlimit="10"/>
<path d="M265.189 304.192C257.833 307.163 254.87 311.752 253.736 314.64C243.537 309.348 223.768 301.576 209.26 293.577C191.509 283.749 187.563 267.072 182.158 263.337C176.752 259.603 165.382 267.375 154.186 265.643C142.989 263.912 139.104 249.563 139.104 249.563C139.104 249.563 149.582 245.027 155.63 240.99C161.678 236.953 175.626 217.01 196.56 227.049C208.119 232.591 209.926 245.193 219.081 252.64C230.421 261.856 241.489 273.732 249.48 286.078C254.047 292.665 259.315 298.738 265.189 304.192Z" fill="#263238"/>
<path d="M209.911 240.098C209.911 240.098 204.249 228.592 195.169 226.362" stroke="white" stroke-linecap="round" stroke-linejoin="round"/>
<path d="M180.23 217.191C173.985 215.83 167.128 222.733 164.241 221.44C162.094 220.48 158.563 226.165 158.563 226.165C152.752 227.004 146.875 227.3 141.009 227.049C132.594 226.513 128.61 228.153 125.632 232.651L121.474 243.666C121.474 243.666 132.443 253.494 144.154 247.771C155.864 242.049 171.423 224.781 182.143 224.842" stroke="#263238" stroke-linecap="round" stroke-linejoin="round"/>
<path d="M267.404 322.676C267.404 322.676 277.656 323.515 275.252 311.268" stroke="#263238" stroke-miterlimit="10"/>
<path d="M315.713 303.7C314.957 305.212 305.56 313.211 297.463 320.204C297.463 320.098 299.731 315.827 300.668 314.005C302.823 309.983 308.387 298.953 318.979 297.501C320.483 298.408 315.713 303.7 315.713 303.7Z" fill="#263238"/>
<path d="M311.684 295.089C300.971 297.221 298.537 310.965 294.734 316.809C290.931 322.653 280.37 330.599 280.37 330.599" stroke="#263238" stroke-miterlimit="10"/>
<path d="M274.594 327.091C276.34 330.281 275.516 333.986 274.594 336.307C274.142 337.459 273.58 338.566 272.916 339.61C257.75 337.116 242.585 328.966 242.585 328.966L238.676 316.87L238.049 314.934L243.938 307.004" stroke="#263238" stroke-miterlimit="10"/>
<path d="M274.593 336.307C274.142 337.459 273.579 338.566 272.915 339.61C257.75 337.115 242.584 328.966 242.584 328.966L238.676 316.87C240.634 319.425 244.263 323.167 249.706 324.702C257.092 326.796 270.723 329.246 274.593 336.307Z" fill="#263238"/>
<path d="M179.58 225.137L183.617 176.065L233.052 174.167L236.371 175.384" stroke="#263238" stroke-linecap="round" stroke-linejoin="round"/>
<path d="M275.184 316.809C275.184 316.809 281.942 318.019 287.136 313.785C292.33 309.552 300.699 299.973 300.699 299.973" stroke="#263238" stroke-miterlimit="10"/>
<path d="M282.063 310.716C282.063 310.716 280.43 313.173 282.063 318.102" stroke="#263238" stroke-linecap="round" stroke-linejoin="round"/>
<path d="M286.856 308.365C286.113 310.815 286.332 313.456 287.468 315.751" stroke="#263238" stroke-linecap="round" stroke-linejoin="round"/>
<path d="M292.571 305.054C292.571 305.054 291.203 309.159 292.571 312.78" stroke="#263238" stroke-linecap="round" stroke-linejoin="round"/>
<path d="M245.276 305.983L239.855 312.508C239.855 312.508 245.314 318.473 253.017 320.952C260.721 323.432 274.48 327.643 275.622 332.126" stroke="#263238" stroke-miterlimit="10"/>
</svg>
